<svg width="38" height="38" viewBox="0 0 38 38" fill="none" xmlns="http://www.w3.org/2000/svg">
<g filter="url(#filter0_dd_1229_431)">
<path d="M30.7427 25.2015C29.8493 23.5123 26.7469 21.6808 26.6103 21.6007C26.2117 21.3737 25.7957 21.2536 25.4064 21.2536C24.8275 21.2536 24.3537 21.5188 24.0667 22.0012C23.6129 22.544 23.0501 23.1786 22.9135 23.2769C21.8564 23.9942 21.0288 23.9128 20.1132 22.997L15.0029 17.8855C14.093 16.9756 14.0094 16.1377 14.7217 15.0862C14.8214 14.9487 15.4558 14.3853 15.9986 13.931C16.3448 13.725 16.5823 13.4188 16.6864 13.0433C16.8248 12.5436 16.7229 11.9557 16.3964 11.3831C16.3194 11.2513 14.4872 8.14805 12.7992 7.25497C12.4842 7.08811 12.1292 7 11.7732 7C11.1868 7 10.6351 7.22872 10.2205 7.643L9.09128 8.77191C7.30539 10.5576 6.65892 12.5818 7.1688 14.788C7.59414 16.6267 8.83368 18.5833 10.8536 20.603L17.3961 27.1465C19.9526 29.7033 22.3898 31 24.6402 31C24.6402 31 24.6402 31 24.6407 31C26.2958 31 27.8387 30.2965 29.2255 28.9095L30.3543 27.7806C31.0403 27.0949 31.1961 26.0581 30.7427 25.2015Z" fill="#EAAC0F"/>
</g>
<defs>
<filter id="filter0_dd_1229_431" x="0" y="0" width="38" height="38" filterUnits="userSpaceOnUse" color-interpolation-filters="sRGB">
<feFlood flood-opacity="0" result="BackgroundImageFix"/>
<feColorMatrix in="SourceAlpha" type="matrix" values="0 0 0 0 0 0 0 0 0 0 0 0 0 0 0 0 0 0 127 0" result="hardAlpha"/>
<feOffset dx="2" dy="2"/>
<feGaussianBlur stdDeviation="2.5"/>
<feColorMatrix type="matrix" values="0 0 0 0 0.6512 0 0 0 0 0.66896 0 0 0 0 0.74 0 0 0 1 0"/>
<feBlend mode="normal" in2="BackgroundImageFix" result="effect1_dropShadow_1229_431"/>
<feColorMatrix in="SourceAlpha" type="matrix" values="0 0 0 0 0 0 0 0 0 0 0 0 0 0 0 0 0 0 127 0" result="hardAlpha"/>
<feOffset dx="-2" dy="-2"/>
<feGaussianBlur stdDeviation="2.5"/>
<feColorMatrix type="matrix" values="0 0 0 0 0.979167 0 0 0 0 0.983333 0 0 0 0 1 0 0 0 0.8 0"/>
<feBlend mode="normal" in2="effect1_dropShadow_1229_431" result="effect2_dropShadow_1229_431"/>
<feBlend mode="normal" in="SourceGraphic" in2="effect2_dropShadow_1229_431" result="shape"/>
</filter>
</defs>
</svg>
